<svg width="80" height="80" viewBox="0 0 80 80" fill="none" xmlns="http://www.w3.org/2000/svg">
<path fill-rule="evenodd" clip-rule="evenodd" d="M37.9415 2.16942C39.1688 1.27686 40.8314 1.27686 42.0587 2.16942L55.5579 11.987C55.7092 12.097 55.8914 12.1563 56.0784 12.1563H68.5026C70.4356 12.1563 72.0026 13.7233 72.0026 15.6563V59.7987C72.0026 61.0912 71.2902 62.2786 70.1497 62.8869L41.6471 78.0882C40.6177 78.6373 39.3824 78.6373 38.353 78.0882L9.8505 62.8869C8.70998 62.2786 7.99756 61.0912 7.99756 59.7987V15.6563C7.99756 13.7233 9.56456 12.1563 11.4976 12.1563H23.9217C24.1088 12.1563 24.291 12.097 24.4423 11.987L37.9415 2.16942ZM40.0001 9.32774L28.5595 17.6482C27.2118 18.6283 25.5882 19.1563 23.9217 19.1563H14.9976V57.6987L40.0001 71.0333L65.0026 57.6987V19.1563H56.0784C54.412 19.1563 52.7884 18.6283 51.4407 17.6482L40.0001 9.32774Z" fill="url(#paint0_linear_9816_56790)"/>
<path fill-rule="evenodd" clip-rule="evenodd" d="M34.1838 26.8989C34.361 26.5785 34.4593 26.2052 34.7016 25.9307C34.9094 25.6951 35.2128 25.5504 35.5439 25.5504H44.4561C44.7872 25.5504 45.0906 25.6951 45.2984 25.9307C45.5407 26.2052 45.639 26.5785 45.8162 26.8989L48.7546 32.2111C48.9243 32.5179 49.2473 32.7083 49.5979 32.7083C49.9423 32.7083 50.2606 32.5245 50.4327 32.2261L52.7643 28.1841C52.9909 27.7913 53.1 27.3129 53.4236 26.9951C53.6277 26.7946 53.907 26.6732 54.2105 26.6732H54.8772C55.4973 26.6732 56 27.1759 56 27.796V40.214C56 40.8341 55.4973 41.3368 54.8772 41.3368H25.1228C24.5027 41.3368 24 40.8341 24 40.214V27.796C24 27.1759 24.5027 26.6732 25.1228 26.6732H25.7895C26.093 26.6732 26.3723 26.7946 26.5764 26.9952C26.9 27.3129 27.0091 27.7913 27.2357 28.1841L29.5673 32.2261C29.7394 32.5245 30.0577 32.7083 30.4021 32.7083C30.7527 32.7083 31.0757 32.5179 31.2454 32.2111L34.1838 26.8989ZM24 47.2144C24 46.5943 24.5027 46.0916 25.1228 46.0916H54.8772C55.4973 46.0916 56 46.5943 56 47.2144V53.3267C56 53.9468 55.4973 54.4495 54.8772 54.4495H25.1228C24.5027 54.4495 24 53.9468 24 53.3267V47.2144Z" fill="url(#paint1_linear_9816_56790)"/>
<defs>
<linearGradient id="paint0_linear_9816_56790" x1="62.6293" y1="67.2236" x2="9.09915" y2="22.7275" gradientUnits="userSpaceOnUse">
<stop offset="0.1192" stop-color="#4271EC"/>
<stop offset="1" stop-color="#79C7F3"/>
</linearGradient>
<linearGradient id="paint1_linear_9816_56790" x1="51.3137" y1="50.2174" x2="30.9846" y2="27.707" gradientUnits="userSpaceOnUse">
<stop offset="0.1192" stop-color="#4271EC"/>
<stop offset="1" stop-color="#79C7F3"/>
</linearGradient>
</defs>
</svg>
