<svg width="80" height="80" viewBox="0 0 80 80" fill="none" xmlns="http://www.w3.org/2000/svg">
<path fill-rule="evenodd" clip-rule="evenodd" d="M6.6665 6.66665C6.6665 4.8257 8.15889 3.33331 9.99984 3.33331H69.9998C71.8408 3.33331 73.3332 4.8257 73.3332 6.66665V46.6666C73.3332 47.5507 72.982 48.3985 72.3569 49.0237L59.0235 62.357C58.3984 62.9821 57.5506 63.3333 56.6665 63.3333H41.3806L29.0235 75.6903C28.0702 76.6437 26.6365 76.9288 25.3909 76.4129C24.1453 75.897 23.3332 74.6815 23.3332 73.3333V63.3333H9.99984C8.15889 63.3333 6.6665 61.8409 6.6665 60V6.66665ZM13.3332 9.99998V56.6666H26.6665C28.5075 56.6666 29.9998 58.159 29.9998 60V65.2859L37.6428 57.643C38.2679 57.0178 39.1158 56.6666 39.9998 56.6666H55.2858L66.6665 45.2859V9.99998H13.3332ZM36.6665 20C38.5075 20 39.9998 21.4924 39.9998 23.3333V36.6666C39.9998 38.5076 38.5075 40 36.6665 40C34.8256 40 33.3332 38.5076 33.3332 36.6666V23.3333C33.3332 21.4924 34.8256 20 36.6665 20ZM53.3332 20C55.1741 20 56.6665 21.4924 56.6665 23.3333V36.6666C56.6665 38.5076 55.1741 40 53.3332 40C51.4922 40 49.9998 38.5076 49.9998 36.6666V23.3333C49.9998 21.4924 51.4922 20 53.3332 20Z" fill="url(#paint0_linear_9816_56798)"/>
<defs>
<linearGradient id="paint0_linear_9816_56798" x1="63.5701" y1="65.9273" x2="11.9501" y2="19.0002" gradientUnits="userSpaceOnUse">
<stop offset="0.1192" stop-color="#4271EC"/>
<stop offset="1" stop-color="#79C7F3"/>
</linearGradient>
</defs>
</svg>
