<svg width="80" height="80" viewBox="0 0 80 80" fill="none" xmlns="http://www.w3.org/2000/svg">
<path fill-rule="evenodd" clip-rule="evenodd" d="M48.3318 17.8728C44.6159 19.8089 42.0937 23.862 43.2593 29.3016C43.4666 30.2691 43.2334 31.2787 42.6227 32.0573C42.012 32.8358 41.087 33.3028 40.098 33.3319C29.5107 33.6433 18.9438 29.6919 11.1061 22.5931C7.24043 35.1947 14.482 49.5312 27.6245 53.4739C28.7862 53.8224 29.6669 54.7745 29.9241 55.9598C30.1814 57.1451 29.7744 58.3766 28.8616 59.1753C25.757 61.8919 22.0843 63.8901 18.1488 65.1415C42.1834 72.486 67.675 52.0674 63.3752 25.1933C63.2063 24.1379 63.5538 23.0655 64.3096 22.3097C64.9135 21.7058 65.4813 21.0261 66.0093 20.3078C65.147 20.5201 64.2333 20.6667 63.3333 20.6667C62.489 20.6667 61.6761 20.3463 61.0589 19.7702C57.1585 16.1298 52.1199 15.8992 48.3318 17.8728ZM73.3333 13.3333C76.4956 14.3874 76.4954 14.388 76.4952 14.3887L76.4908 14.4018L76.4824 14.4263L76.4553 14.5052C76.4326 14.5707 76.4006 14.6618 76.3593 14.776C76.2768 15.0042 76.157 15.3258 76.0005 15.7212C75.6883 16.5103 75.226 17.6038 74.6172 18.8439C73.6138 20.8879 72.1411 23.4788 70.188 25.7623C74.5472 61.0648 35.495 86.4395 4.82509 66.1118C3.57595 65.2839 3.03287 63.7241 3.49769 62.2995C3.9625 60.8748 5.32093 59.9354 6.81798 60.0035C11.353 60.2096 15.8409 59.2712 19.7059 57.3387C5.16786 49.318 -1.22503 30.34 7.07121 15.075C7.59662 14.1082 8.56527 13.463 9.65983 13.3507C10.7544 13.2385 11.8338 13.6736 12.5446 14.5135C18.44 21.4809 27.2139 25.8634 36.3034 26.5787C36.3387 19.9342 40.08 14.6549 45.2514 11.9605C50.9777 8.97709 58.4494 9.16193 64.3811 13.8427C64.6695 13.7728 65.001 13.677 65.3752 13.5505C66.3022 13.2372 67.2979 12.8023 68.2421 12.3398C69.1786 11.8811 70.0171 11.4187 70.6227 11.0699C70.924 10.8963 71.164 10.753 71.3254 10.6551C71.406 10.6062 71.4668 10.5688 71.5056 10.5448L71.5469 10.5191L71.5533 10.515C72.7444 9.76314 74.2803 9.8407 75.3891 10.7095C76.4982 11.5784 76.9407 13.0521 76.4952 14.3887L73.3333 13.3333Z" fill="url(#paint0_linear_9816_56796)"/>
<defs>
<linearGradient id="paint0_linear_9816_56796" x1="65.927" y1="64.0681" x2="21.5879" y2="12.761" gradientUnits="userSpaceOnUse">
<stop offset="0.1192" stop-color="#4271EC"/>
<stop offset="1" stop-color="#79C7F3"/>
</linearGradient>
</defs>
</svg>
