<svg width="80" height="80" viewBox="0 0 80 80" fill="none" xmlns="http://www.w3.org/2000/svg">
<path d="M22.312 55.5L32.35 25.68H24.79L19.246 44.916C18.7 46.68 18.448 47.856 18.28 49.032H18.112C17.986 47.856 17.692 46.68 17.188 44.916L11.644 25.68H4.08398L14.122 55.5H22.312Z" fill="url(#paint0_linear_9816_56773)"/>
<path d="M44.0578 25.68H37.0018V55.5H44.0578V25.68Z" fill="url(#paint1_linear_9816_56773)"/>
<path d="M51.5197 25.68V55.5H58.5757V44.664H64.5817C71.3017 44.664 75.4177 40.968 75.4177 35.046C75.4177 29.376 71.2177 25.68 64.7077 25.68H51.5197ZM58.5757 39.708V30.804H62.9857C66.1777 30.804 68.0257 32.442 68.0257 35.256C68.0257 38.07 66.1777 39.708 62.9857 39.708H58.5757Z" fill="url(#paint2_linear_9816_56773)"/>
<defs>
<linearGradient id="paint0_linear_9816_56773" x1="64.9711" y1="51.133" x2="49.9643" y2="15.2345" gradientUnits="userSpaceOnUse">
<stop stop-color="#F9EC00"/>
<stop offset="1" stop-color="#EA8425"/>
</linearGradient>
<linearGradient id="paint1_linear_9816_56773" x1="64.9711" y1="51.133" x2="49.9643" y2="15.2345" gradientUnits="userSpaceOnUse">
<stop stop-color="#F9EC00"/>
<stop offset="1" stop-color="#EA8425"/>
</linearGradient>
<linearGradient id="paint2_linear_9816_56773" x1="64.9711" y1="51.133" x2="49.9643" y2="15.2345" gradientUnits="userSpaceOnUse">
<stop stop-color="#F9EC00"/>
<stop offset="1" stop-color="#EA8425"/>
</linearGradient>
</defs>
</svg>
