<svg width="80" height="80" viewBox="0 0 80 80" fill="none" xmlns="http://www.w3.org/2000/svg">
<path d="M48.4759 64.1183C43.7644 56.4535 40.8697 52.4439 36.1567 44.7799C35.3294 43.4349 35.9773 41.1201 38.1621 39.6947C40.3469 38.2692 42.8538 38.8422 43.766 40.1842C44.6783 41.5263 52.3768 54.1579 52.3768 54.1579L63.8636 48.9334C64.816 48.3535 65.9406 48.1231 67.0444 48.2817C67.9114 48.4179 68.7236 48.7926 69.3899 49.3639L77.2892 62.0535C77.684 63.7364 77.6972 65.4864 77.3279 67.1751C76.9586 68.8638 76.2161 70.4485 75.1548 71.813L63.3527 79.1539C62.8987 79.4647 61.7218 80.1746 60.2733 79.9603C59.9945 79.9184 59.7214 79.8452 59.4591 79.742L41.4385 72.2427C40.3641 71.5671 39.0751 70.9842 39.075 68.2724C39.075 65.9706 40.5073 64.548 41.4384 64.1182C42.3695 63.6885 48.4759 64.1183 48.4759 64.1183Z" fill="url(#paint0_linear_11264_56505)"/>
<path fill-rule="evenodd" clip-rule="evenodd" d="M26.2886 52.874C27.1176 52.9563 27.8564 52.3509 27.9387 51.5218L28.3538 47.3399C28.4361 46.5109 27.8307 45.7721 27.0016 45.6898C23.0318 45.2957 19.2818 43.6801 16.2687 41.0655C13.2555 38.4508 11.1275 34.966 10.178 31.0912C9.22843 27.2165 9.5041 23.1426 10.967 19.4311C12.4299 15.7196 15.0079 12.5532 18.3458 10.3683C21.6837 8.18347 25.6172 7.08771 29.604 7.2321C33.5907 7.37648 37.4346 8.75388 40.6057 11.1745C43.7769 13.595 46.1191 16.9396 47.3097 20.7472C48.5003 24.5548 48.4806 28.638 47.2532 32.4339C47.1301 32.8146 47.1633 33.2286 47.3455 33.5848C47.5276 33.941 47.8438 34.2103 48.2245 34.3334L52.2231 35.6262C53.0159 35.8825 53.8663 35.4477 54.1226 34.655C55.8095 29.4378 55.8366 23.8259 54.2002 18.5927C52.5639 13.3595 49.3446 8.76263 44.9862 5.43574C40.6278 2.10887 35.3447 0.215743 29.8652 0.0173074C24.3858 -0.181132 18.9796 1.32489 14.3919 4.32779C9.80427 7.3307 6.26095 11.6826 4.25035 16.7838C2.23975 21.8849 1.86087 27.4841 3.16593 32.8096C4.47099 38.1351 7.39573 42.9247 11.537 46.5183C15.6783 50.1118 20.8323 52.3324 26.2886 52.874Z" fill="url(#paint1_linear_11264_56505)"/>
<path d="M22.5459 16.4387C22.4996 15.6065 23.4276 15.0824 24.1164 15.5517L29.7896 19.4178C30.0629 19.604 30.4102 19.644 30.7186 19.5247L37.1256 17.0473C37.9028 16.7468 38.6874 17.4677 38.4535 18.2676L36.5273 24.8552C36.4344 25.173 36.5039 25.5162 36.7131 25.7729L41.0496 31.0922C41.5763 31.7383 41.1335 32.7079 40.3002 32.7328L33.4376 32.9385C33.1066 32.9484 32.8018 33.1206 32.6224 33.3989L28.9027 39.1697C28.4511 39.8703 27.392 39.7489 27.1107 38.9642L24.7946 32.5039C24.6828 32.1922 24.4248 31.9555 24.1046 31.871L17.4686 30.119C16.6628 29.9062 16.4506 28.8621 17.1093 28.3516L22.5391 24.1441C22.8005 23.9416 22.9456 23.6235 22.9273 23.2933L22.5459 16.4387Z" fill="url(#paint2_linear_11264_56505)"/>
<defs>
<linearGradient id="paint0_linear_11264_56505" x1="71.4761" y1="73.9758" x2="42.3925" y2="44.4327" gradientUnits="userSpaceOnUse">
<stop stop-color="#F9EC00"/>
<stop offset="1" stop-color="#EA8425"/>
</linearGradient>
<linearGradient id="paint1_linear_11264_56505" x1="47.6457" y1="45.1372" x2="10.2529" y2="7.65803" gradientUnits="userSpaceOnUse">
<stop stop-color="#F9EC00"/>
<stop offset="1" stop-color="#EA8425"/>
</linearGradient>
<linearGradient id="paint2_linear_11264_56505" x1="40.5672" y1="28.7487" x2="17.4706" y2="21.747" gradientUnits="userSpaceOnUse">
<stop stop-color="#F9EC00"/>
<stop offset="1" stop-color="#EA8425"/>
</linearGradient>
</defs>
</svg>
