<svg width="80" height="80" viewBox="0 0 80 80" fill="none" xmlns="http://www.w3.org/2000/svg">
<path fill-rule="evenodd" clip-rule="evenodd" d="M69.9999 33.33C71.8399 33.33 73.3299 31.84 73.3299 30V23.33C73.3299 20.68 72.2799 18.14 70.3999 16.26C68.5199 14.38 65.9899 13.33 63.3299 13.33H16.6699C14.0099 13.33 11.4699 14.39 9.59992 16.26C7.72992 18.13 6.66992 20.68 6.66992 23.33V30C6.66992 31.84 8.15992 33.33 9.99992 33.33C11.8399 33.33 13.4599 34.04 14.7099 35.29C15.9599 36.54 16.6699 38.23 16.6699 40C16.6699 41.77 15.9599 43.46 14.7099 44.71C13.4599 45.96 11.7699 46.67 9.99992 46.67C8.22992 46.67 6.66992 48.16 6.66992 50V56.67C6.66992 59.32 7.71992 61.86 9.59992 63.74C11.4799 65.62 14.0099 66.67 16.6699 66.67H63.3299C65.9899 66.67 68.5299 65.61 70.3999 63.74C72.2699 61.87 73.3299 59.32 73.3299 56.67V50C73.3299 48.16 71.8399 46.67 69.9999 46.67C68.1599 46.67 66.5399 45.96 65.2899 44.71C64.0399 43.46 63.3299 41.77 63.3299 40C63.3299 38.23 64.0399 36.54 65.2899 35.29C66.5399 34.04 68.2299 33.33 69.9999 33.33ZM66.6699 52.91V56.67C66.6699 57.55 66.3199 58.4 65.6899 59.02C65.0699 59.65 64.2199 60 63.3299 60H16.6699C15.7799 60 14.9299 59.65 14.3099 59.02C13.6799 58.4 13.3299 57.55 13.3299 56.67V52.91C15.6199 52.32 17.7299 51.13 19.4299 49.43C21.9299 46.93 23.3299 43.54 23.3299 40C23.3299 37.64 22.7099 35.34 21.5499 33.33H58.4499C57.2899 35.34 56.6699 37.64 56.6699 40C56.6699 43.54 58.0699 46.93 60.5699 49.43C62.2699 51.13 64.3799 52.32 66.6699 52.91ZM13.3299 26.67V23.33C13.3299 22.45 13.6799 21.6 14.3099 20.98C14.9299 20.35 15.7799 20 16.6699 20H39.9999V23.33C39.9999 25.17 41.4899 26.67 43.3299 26.67C45.1699 26.67 46.6699 25.17 46.6699 23.33V20H63.3299C64.2199 20 65.0699 20.35 65.6899 20.98C66.3199 21.6 66.6699 22.45 66.6699 23.33V26.67H13.3299ZM43.3299 33.33C45.1699 33.33 46.6599 34.82 46.6599 36.66V43.33C46.6599 45.17 45.1699 46.66 43.3299 46.66C41.4899 46.66 39.9999 45.17 39.9999 43.33V36.66C39.9999 34.82 41.4899 33.33 43.3299 33.33Z" fill="url(#paint0_linear_10620_56697)"/>
<defs>
<linearGradient id="paint0_linear_10620_56697" x1="63.5678" y1="58.8586" x2="26.7688" y2="12.8702" gradientUnits="userSpaceOnUse">
<stop stop-color="#F9EC00"/>
<stop offset="1" stop-color="#EA8425"/>
</linearGradient>
</defs>
</svg>
