<svg width="80" height="80" viewBox="0 0 80 80" fill="none" xmlns="http://www.w3.org/2000/svg">
<path fill-rule="evenodd" clip-rule="evenodd" d="M4.88155 51.5482C8.00716 48.4226 12.2464 46.6667 16.6667 46.6667H43.3333C47.7536 46.6667 51.9928 48.4226 55.1184 51.5482C58.2441 54.6739 60 58.9131 60 63.3334V70C60 71.841 58.5076 73.3334 56.6667 73.3334C54.8257 73.3334 53.3333 71.841 53.3333 70V63.3334C53.3333 60.6812 52.2798 58.1377 50.4044 56.2623C48.529 54.3869 45.9855 53.3334 43.3333 53.3334H16.6667C14.0145 53.3334 11.471 54.3869 9.5956 56.2623C7.72023 58.1377 6.66667 60.6812 6.66667 63.3334V70C6.66667 71.841 5.17428 73.3334 3.33333 73.3334C1.49238 73.3334 0 71.841 0 70V63.3334C0 58.9131 1.75595 54.6739 4.88155 51.5482Z" fill="url(#paint0_linear_9816_56781)"/>
<path fill-rule="evenodd" clip-rule="evenodd" d="M30 13.3334C24.4772 13.3334 20 17.8105 20 23.3334C20 28.8562 24.4772 33.3334 30 33.3334C35.5228 33.3334 40 28.8562 40 23.3334C40 17.8105 35.5228 13.3334 30 13.3334ZM13.3333 23.3334C13.3333 14.1286 20.7953 6.66669 30 6.66669C39.2047 6.66669 46.6667 14.1286 46.6667 23.3334C46.6667 32.5381 39.2047 40 30 40C20.7953 40 13.3333 32.5381 13.3333 23.3334Z" fill="url(#paint1_linear_9816_56781)"/>
<path fill-rule="evenodd" clip-rule="evenodd" d="M63.4392 49.6C63.8994 47.8175 65.7175 46.7456 67.5 47.2059C71.0755 48.1291 74.2432 50.2136 76.5057 53.1322C78.7682 56.0508 79.9972 59.6381 80 63.3309V70C80 71.841 78.5076 73.3334 76.6667 73.3334C74.8257 73.3334 73.3333 71.841 73.3333 70V63.3358V63.3358C73.3315 61.1205 72.594 58.9675 71.2367 57.2166C69.8793 55.4655 67.9787 54.2148 65.8333 53.6608C64.0508 53.2006 62.9789 51.3825 63.4392 49.6Z" fill="url(#paint2_linear_9816_56781)"/>
<path fill-rule="evenodd" clip-rule="evenodd" d="M50.1042 9.60656C50.5608 7.82314 52.3767 6.74756 54.1601 7.20419C57.7452 8.12211 60.9228 10.2071 63.192 13.1305C65.4611 16.0539 66.6928 19.6493 66.6928 23.35C66.6928 27.0507 65.4611 30.6462 63.192 33.5696C60.9228 36.4929 57.7452 38.5779 54.1601 39.4959C52.3767 39.9525 50.5608 38.8769 50.1042 37.0935C49.6475 35.3101 50.7231 33.4941 52.5065 33.0375C54.6576 32.4868 56.5641 31.2358 57.9256 29.4817C59.2871 27.7277 60.0261 25.5704 60.0261 23.35C60.0261 21.1296 59.2871 18.9723 57.9256 17.2183C56.5641 15.4643 54.6576 14.2133 52.5065 13.6625C50.7231 13.2059 49.6475 11.39 50.1042 9.60656Z" fill="url(#paint3_linear_9816_56781)"/>
<defs>
<linearGradient id="paint0_linear_9816_56781" x1="68.2843" y1="63.5702" x2="21.9166" y2="7.92906" gradientUnits="userSpaceOnUse">
<stop stop-color="#F9EC00"/>
<stop offset="1" stop-color="#EA8425"/>
</linearGradient>
<linearGradient id="paint1_linear_9816_56781" x1="68.2843" y1="63.5702" x2="21.9166" y2="7.92906" gradientUnits="userSpaceOnUse">
<stop stop-color="#F9EC00"/>
<stop offset="1" stop-color="#EA8425"/>
</linearGradient>
<linearGradient id="paint2_linear_9816_56781" x1="68.2843" y1="63.5702" x2="21.9166" y2="7.92906" gradientUnits="userSpaceOnUse">
<stop stop-color="#F9EC00"/>
<stop offset="1" stop-color="#EA8425"/>
</linearGradient>
<linearGradient id="paint3_linear_9816_56781" x1="68.2843" y1="63.5702" x2="21.9166" y2="7.92906" gradientUnits="userSpaceOnUse">
<stop stop-color="#F9EC00"/>
<stop offset="1" stop-color="#EA8425"/>
</linearGradient>
</defs>
</svg>
