<svg width="80" height="80" viewBox="0 0 80 80" fill="none" xmlns="http://www.w3.org/2000/svg">
<path fill-rule="evenodd" clip-rule="evenodd" d="M51.7223 10C52.7123 18.5143 57.4645 23.5904 65.7268 24.1305V33.7068C60.9387 34.1748 56.7445 32.6087 51.8663 29.6566V47.5672C51.8663 70.32 27.0613 77.4302 17.0889 61.1217C10.6806 50.6273 14.6048 32.2127 35.1616 31.4747V41.573C33.5956 41.825 31.9215 42.221 30.3914 42.7431C25.8193 44.2911 23.2271 47.1892 23.9472 52.3014C25.3332 62.0937 43.2979 64.9918 41.8039 45.8572V10.018H51.7223V10Z" fill="url(#paint0_linear_9816_56788)"/>
<path d="M67.7103 72.3529H60.0002V67.7521H67.7103V60H72.3112V67.7521H80.0002V72.3529H72.3112V80H67.7103V72.3529Z" fill="url(#paint1_linear_9816_56788)"/>
<defs>
<linearGradient id="paint0_linear_9816_56788" x1="70.3748" y1="69.7487" x2="20.9753" y2="23.3649" gradientUnits="userSpaceOnUse">
<stop stop-color="#F9EC00"/>
<stop offset="1" stop-color="#EA8425"/>
</linearGradient>
<linearGradient id="paint1_linear_9816_56788" x1="70.3748" y1="69.7487" x2="20.9753" y2="23.3649" gradientUnits="userSpaceOnUse">
<stop stop-color="#F9EC00"/>
<stop offset="1" stop-color="#EA8425"/>
</linearGradient>
</defs>
</svg>
