<svg width="80" height="80" viewBox="0 0 80 80" fill="none" xmlns="http://www.w3.org/2000/svg">
<path fill-rule="evenodd" clip-rule="evenodd" d="M23.3333 9.99998C15.9695 9.99998 9.99992 15.9695 9.99992 23.3333V56.6666C9.99992 64.0304 15.9695 70 23.3333 70H56.6666C64.0304 70 69.9999 64.0304 69.9999 56.6666V23.3333C69.9999 15.9695 64.0304 9.99998 56.6666 9.99998H23.3333ZM3.33325 23.3333C3.33325 12.2876 12.2876 3.33331 23.3333 3.33331H56.6666C67.7123 3.33331 76.6666 12.2876 76.6666 23.3333V56.6666C76.6666 67.7123 67.7123 76.6666 56.6666 76.6666H23.3333C12.2876 76.6666 3.33325 67.7123 3.33325 56.6666V23.3333Z" fill="url(#paint0_linear_9816_56770)"/>
<path fill-rule="evenodd" clip-rule="evenodd" d="M41.611 29.9639C39.5304 29.6554 37.4054 30.0108 35.5384 30.9795C33.6714 31.9483 32.1574 33.4811 31.2118 35.3599C30.2661 37.2387 29.937 39.3678 30.2711 41.4445C30.6053 43.5211 31.5858 45.4395 33.0731 46.9268C34.5604 48.4141 36.4788 49.3946 38.5554 49.7288C40.6321 50.0629 42.7612 49.7338 44.64 48.7881C46.5188 47.8425 48.0516 46.3285 49.0204 44.4615C49.9891 42.5945 50.3445 40.4695 50.036 38.3889C49.7213 36.2666 48.7323 34.3018 47.2152 32.7847C45.6981 31.2676 43.7333 30.2786 41.611 29.9639ZM32.468 25.062C35.5796 23.4475 39.1212 22.8552 42.5889 23.3694C46.126 23.8939 49.4007 25.5421 51.9293 28.0706C54.4578 30.5992 56.106 33.8739 56.6305 37.411C57.1447 40.8787 56.5524 44.4203 54.9379 47.5319C53.3233 50.6436 50.7686 53.1669 47.6373 54.743C44.506 56.3191 40.9574 56.8677 37.4963 56.3108C34.0352 55.7538 30.8379 54.1197 28.359 51.6409C25.8802 49.162 24.2461 45.9647 23.6891 42.5036C23.1322 39.0425 23.6808 35.4939 25.2569 32.3626C26.833 29.2313 29.3563 26.6766 32.468 25.062Z" fill="url(#paint1_linear_9816_56770)"/>
<path fill-rule="evenodd" clip-rule="evenodd" d="M54.9999 21.6666C54.9999 19.8257 56.4923 18.3333 58.3333 18.3333H58.3666C60.2075 18.3333 61.6999 19.8257 61.6999 21.6666C61.6999 23.5076 60.2075 25 58.3666 25H58.3333C56.4923 25 54.9999 23.5076 54.9999 21.6666Z" fill="url(#paint2_linear_9816_56770)"/>
<defs>
<linearGradient id="paint0_linear_9816_56770" x1="65.9272" y1="65.9272" x2="14.0727" y2="14.0727" gradientUnits="userSpaceOnUse">
<stop stop-color="#F9EC00"/>
<stop offset="1" stop-color="#EA8425"/>
</linearGradient>
<linearGradient id="paint1_linear_9816_56770" x1="65.9272" y1="65.9272" x2="14.0727" y2="14.0727" gradientUnits="userSpaceOnUse">
<stop stop-color="#F9EC00"/>
<stop offset="1" stop-color="#EA8425"/>
</linearGradient>
<linearGradient id="paint2_linear_9816_56770" x1="65.9272" y1="65.9272" x2="14.0727" y2="14.0727" gradientUnits="userSpaceOnUse">
<stop stop-color="#F9EC00"/>
<stop offset="1" stop-color="#EA8425"/>
</linearGradient>
</defs>
</svg>
