<svg width="80" height="80" viewBox="0 0 80 80" fill="none" xmlns="http://www.w3.org/2000/svg">
<path fill-rule="evenodd" clip-rule="evenodd" d="M75.8444 22.915C75.6685 21.443 75.3332 19.9945 74.8444 18.595C73.8241 15.8341 72.2071 13.3324 70.1086 11.2685C68.0101 9.20455 65.4819 7.62925 62.7044 6.65499C60.6587 5.92149 58.5072 5.52631 56.3344 5.48499L46.6644 5.48499C42.2244 5.48499 37.7811 5.48499 33.3344 5.48499H23.6644C22.9044 5.48499 22.1444 5.55499 21.3944 5.65499C19.9192 5.84001 18.4699 6.19228 17.0744 6.70499C14.3121 7.71702 11.8085 9.32892 9.74386 11.4247C7.67925 13.5204 6.10499 16.0478 5.13439 18.825C4.41346 20.8761 4.03179 23.031 4.00439 25.205L4.00439 26.805V28.805V72.005C4.00439 72.065 4.00439 72.125 4.00439 72.165C4.02967 72.4231 4.09372 72.676 4.19439 72.915C4.3395 73.2744 4.5643 73.5961 4.85186 73.8559C5.13941 74.1158 5.48221 74.3069 5.85439 74.415C6.01513 74.4731 6.18367 74.5068 6.35439 74.515H73.6444C73.9001 74.5015 74.1511 74.4405 74.3844 74.335C74.7401 74.1849 75.0591 73.9598 75.3197 73.675C75.5804 73.3903 75.7764 73.0525 75.8944 72.685C75.943 72.5149 75.9765 72.3409 75.9944 72.165C75.9894 72.1118 75.9894 72.0582 75.9944 72.005V28.835V26.835V25.205C76.0044 24.485 75.9344 23.665 75.8444 22.915ZM68.7744 67.305H11.2344V60.705H68.7744V67.305ZM68.7744 53.475H11.2344V38.955H22.0044V44.555C22.0044 44.635 22.0044 44.715 22.0044 44.805C22.0239 45.063 22.0847 45.3162 22.1844 45.555C22.3367 45.9098 22.5639 46.2276 22.8504 46.4865C23.1369 46.7454 23.476 46.9393 23.8444 47.055C24.0079 47.1003 24.1753 47.1305 24.3444 47.145H53.6644C53.8334 47.1296 54.0007 47.0995 54.1644 47.055C54.5328 46.9393 54.8719 46.7454 55.1584 46.4865C55.4449 46.2276 55.6721 45.9098 55.8244 45.555C55.8844 45.395 55.9344 45.215 55.9744 45.065C56.0144 44.915 55.9744 44.895 55.9744 44.805V44.555V38.955H68.7744V53.475ZM42.6144 33.645C42.6043 33.3658 42.5538 33.0896 42.4644 32.825C42.3392 32.4821 42.1451 32.1686 41.894 31.9037C41.6428 31.6388 41.3401 31.4283 41.0044 31.285C40.7207 31.1849 40.4246 31.1243 40.1244 31.105C40.0715 31.095 40.0173 31.095 39.9644 31.105C39.6544 31.105 39.3644 30.995 39.0844 31.105C38.8044 30.995 38.5044 31.105 38.2044 31.105C38.1515 31.095 38.0973 31.095 38.0444 31.105C37.7441 31.1233 37.4478 31.1839 37.1644 31.285C36.8207 31.4226 36.5096 31.6308 36.2512 31.896C35.9929 32.1613 35.793 32.4777 35.6644 32.825C35.5719 33.0892 35.518 33.3654 35.5044 33.645C35.5044 34.815 35.5044 35.975 35.5044 37.155V37.785C35.5044 38.505 35.5044 39.205 35.5044 39.935H29.2244V25.585H48.7844V39.935H42.6244C42.6244 39.335 42.6244 38.745 42.6244 38.145C42.6544 36.645 42.6444 35.145 42.6144 33.645ZM68.7744 31.645H56.0044V20.965C56.0044 20.885 56.0044 20.805 56.0044 20.705C55.9789 20.4512 55.9183 20.2021 55.8244 19.965C55.6671 19.6156 55.4379 19.3033 55.1519 19.0483C54.8659 18.7933 54.5295 18.6014 54.1644 18.485C54.0007 18.4405 53.8334 18.4104 53.6644 18.395C53.578 18.4053 53.4908 18.4053 53.4044 18.395H24.6044C24.518 18.4049 24.4308 18.4049 24.3444 18.395C23.8704 18.4318 23.4164 18.6014 23.0343 18.8844C22.6523 19.1674 22.3577 19.5523 22.1844 19.995C22.0859 20.2307 22.0251 20.4804 22.0044 20.735C22.0044 20.835 22.0044 20.915 22.0044 20.995V31.695H11.2344V31.485L11.2944 26.165C11.2944 25.675 11.4044 25.165 11.5044 24.695C11.6944 23.6923 11.9928 22.7132 12.3944 21.775C13.1756 19.9177 14.3333 18.2424 15.7944 16.855C17.9558 14.7693 20.7138 13.4095 23.6844 12.965C24.1744 12.895 24.6844 12.845 25.1644 12.805H54.8344C55.3344 12.805 55.8344 12.895 56.3244 12.965C59.2352 13.4003 61.9431 14.7158 64.0844 16.735C65.5171 18.0594 66.6698 19.6575 67.4744 21.435C68.0698 22.7597 68.4674 24.1647 68.6544 25.605L68.7144 26.195L68.7744 31.485V31.645Z" fill="url(#paint0_linear_10790_56688)"/>
<defs>
<linearGradient id="paint0_linear_10790_56688" x1="65.4525" y1="64.4058" x2="16.684" y2="13.5454" gradientUnits="userSpaceOnUse">
<stop stop-color="#F9EC00"/>
<stop offset="1" stop-color="#EA8425"/>
</linearGradient>
</defs>
</svg>
